<svg width="18" height="18" viewBox="0 0 18 18" fill="none" xmlns="http://www.w3.org/2000/svg">
<path d="M16.1532 5.63418C15.2358 5.00672 14.6605 4.16776 14.2005 2.87588C14.0295 2.39565 13.6029 2.08513 13.1137 2.08513C12.5878 2.08513 12.1069 2.42426 11.7945 3.01539C11.6191 3.34197 11.5113 3.70055 11.4775 4.06972C11.1535 3.47891 10.4952 3.35322 10.1831 3.77335C10.1831 3.77335 7.61605 1.82187 6.74044 1.20053C5.57682 0.375706 4.03551 1.28924 4.07408 2.23268C2.60477 1.43614 0.991771 2.84245 1.48872 4.31626C0.920411 4.21212 -0.533151 5.71872 0.994985 6.87591C-0.0635238 6.98456 -0.474648 8.64191 0.755511 9.39634C0.755511 9.39634 0.761297 9.62552 0.77769 9.73803C-0.0329869 9.98425 -0.312642 11.5169 0.471356 12.0007C0.471356 12.0007 6.12552 15.6111 8.07186 16.6973C9.1294 17.2874 10.9504 17.5192 12.5727 16.9923C14.1481 16.829 15.4846 15.9939 16.5586 14.5057C19.5142 10.4098 17.1728 6.33171 16.1532 5.63418ZM15.807 14.1064C14.5762 15.8358 12.8086 16.0152 11.456 16.0152C9.24801 16.0152 7.89924 14.9566 7.89924 14.9566L1.83941 10.432C0.692187 9.63999 1.38297 8.37801 2.18786 8.40115L7.00853 11.686L7.60191 11.7229C7.60191 11.7229 3.29619 8.63195 1.9021 7.54387C1.0882 6.9087 1.35564 5.69557 2.40933 5.45449L8.4383 9.78239L9.03104 9.81936L2.59095 4.82479C1.23028 3.83024 2.59577 1.95495 3.91497 2.90996C5.43635 4.01122 10.0134 7.50176 10.0134 7.50176L10.6067 7.53904L4.58132 2.54801C4.52924 1.77784 5.55368 1.10827 6.37271 1.72094C8.01978 2.95303 12.9636 6.64544 12.9636 6.64544C12.8363 6.28896 12.7726 6.02087 12.7726 6.02087C12.7726 6.02087 11.8334 4.45931 12.3422 3.32237C12.789 2.32525 13.6929 2.48726 13.8752 3.0231C14.3596 4.44966 14.8614 5.29634 15.8652 6.00994C17.1471 6.92123 18.458 10.3832 15.807 14.1064Z" fill="black"/>
</svg>
